<svg width="12" height="9" viewBox="0 0 12 9" fill="none" xmlns="http://www.w3.org/2000/svg">
<path d="M11.0482 1.3545L11.0482 1.35452C11.1167 1.40768 11.1222 1.49616 11.0634 1.55518L11.0634 1.55521L4.15257 8.51375L4.15255 8.51376C4.12064 8.54592 4.0733 8.56535 4.02223 8.56535H4.02222H4.0222H4.02219H4.02217H4.02216H4.02214H4.02213H4.02211H4.02209H4.02208H4.02206H4.02205H4.02203H4.02202H4.022H4.02199H4.02197H4.02195H4.02194H4.02192H4.02191H4.02189H4.02188H4.02186H4.02185H4.02183H4.02181H4.0218H4.02178H4.02177H4.02175H4.02174H4.02172H4.0217H4.02169H4.02167H4.02166H4.02164H4.02163H4.02161H4.0216H4.02158H4.02156H4.02155H4.02153H4.02152H4.0215H4.02149H4.02147H4.02146H4.02144H4.02142H4.02141H4.02139H4.02138H4.02136H4.02135H4.02133H4.02131H4.0213H4.02128H4.02127H4.02125H4.02124H4.02122H4.0212H4.02119H4.02117H4.02116H4.02114H4.02113H4.02111H4.0211H4.02108H4.02106H4.02105H4.02103H4.02102H4.021H4.02099H4.02097H4.02095H4.02094H4.02092H4.02091H4.02089H4.02088H4.02086H4.02084H4.02083H4.02081H4.0208H4.02078H4.02077H4.02075H4.02073H4.02072H4.0207H4.02069H4.02067H4.02066H4.02064H4.02062H4.02061H4.02059H4.02058H4.02056H4.02055H4.02053H4.02051H4.0205H4.02048H4.02047H4.02045H4.02044H4.02042H4.0204H4.02039H4.02037H4.02036H4.02034H4.02033H4.02031H4.02029H4.02028H4.02026H4.02025H4.02023H4.02022H4.0202H4.02018H4.02017H4.02015H4.02014H4.02012H4.0201H4.02009H4.02007H4.02006H4.02004H4.02003H4.02001H4.01999H4.01998H4.01996H4.01995H4.01993H4.01992H4.0199H4.01988H4.01987H4.01985H4.01984H4.01982H4.0198H4.01979H4.01977H4.01976H4.01974H4.01973H4.01971H4.01969H4.01968H4.01966H4.01965H4.01963H4.01962H4.0196H4.01958H4.01957H4.01955H4.01954H4.01952H4.0195H4.01949H4.01947H4.01946H4.01944H4.01943H4.01941H4.01939H4.01938H4.01936H4.01935H4.01933H4.01932H4.0193H4.01928H4.01927H4.01925H4.01924H4.01922H4.0192H4.01919H4.01917H4.01916H4.01914H4.01913H4.01911H4.01909H4.01908H4.01906H4.01905H4.01903H4.01901H4.019H4.01898H4.01897H4.01895H4.01894H4.01892H4.0189H4.01889H4.01887H4.01886H4.01884H4.01882H4.01881H4.01879H4.01878H4.01876H4.01875H4.01873H4.01871H4.0187H4.01868H4.01867H4.01865H4.01863H4.01862H4.0186H4.01859H4.01857H4.01856H4.01854H4.01852H4.01851H4.01849H4.01848H4.01846H4.01844H4.01843H4.01841H4.0184H4.01838H4.01837H4.01835H4.01833H4.01832H4.0183H4.01829H4.01827H4.01825H4.01824H4.01822H4.01821H4.01819H4.01818H4.01816H4.01814H4.01813H4.01811H4.0181H4.01808H4.01806H4.01805H4.01803H4.01802H4.018H4.01799H4.01797H4.01795H4.01794H4.01792H4.01791H4.01789H4.01787H4.01786H4.01784H4.01783H4.01781H4.0178H4.01778H4.01776H4.01775H4.01773H4.01772H4.0177H4.01768H4.01767H4.01765H4.01764H4.01762H4.01761H4.01759H4.01757H4.01756H4.01754H4.01753H4.01751H4.01749H4.01748H4.01746H4.01745H4.01743H4.01742H4.0174H4.01738H4.01737H4.01735H4.01734H4.01732H4.0173H4.01729H4.01727H4.01726H4.01724H4.01723H4.01721H4.01719H4.01718H4.01716H4.01715H4.01713H4.01712H4.0171H4.01708H4.01707H4.01705H4.01704H4.01702H4.017H4.01699H4.01697H4.01696H4.01694H4.01693H4.01691H4.01689H4.01688H4.01686H4.01685H4.01683H4.01681H4.0168H4.01678H4.01677H4.01675H4.01674H4.01672H4.0167H4.01669H4.01667H4.01666H4.01664H4.01663H4.01661H4.01659H4.01658H4.01656H4.01655H4.01653H4.01651H4.0165H4.01648H4.01647H4.01645H4.01644H4.01642H4.0164H4.01639H4.01637H4.01636H4.01634H4.01633H4.01631H4.01629H4.01628H4.01626H4.01625H4.01623H4.01622H4.0162H4.01618H4.01617H4.01615H4.01614H4.01612H4.0161H4.01609H4.01607H4.01606H4.01604H4.01603H4.01601H4.01599H4.01598H4.01596H4.01595H4.01593H4.01592H4.0159H4.01588H4.01587H4.01585H4.01584H4.01582H4.01581H4.01579H4.01577H4.01576H4.01574H4.01573H4.01571H4.0157H4.01568H4.01566H4.01565H4.01563H4.01562H4.0156H4.01559H4.01557H4.01555H4.01554H4.01552H4.01551H4.01549H4.01548H4.01546H4.01544H4.01543H4.01541H4.0154H4.01538H4.01537H4.01535H4.01533H4.01532H4.0153H4.01529H4.01527H4.01526H4.01524H4.01523H4.01521H4.01519H4.01518H4.01516H4.01515H4.01513H4.01512H4.0151H4.01508H4.01507H4.01505H4.01504H4.01502C3.962 8.56342 3.9142 8.54049 3.8843 8.50548L0.467275 4.5043L0.467266 4.50429C0.414481 4.44252 0.426162 4.3544 0.50006 4.30497C0.500064 4.30497 0.500069 4.30496 0.500074 4.30496L2.02004 3.28916L2.02017 3.28907C2.05641 3.26468 2.10314 3.25353 2.14911 3.25958L2.14961 3.25964C2.19608 3.26528 2.2367 3.287 2.26313 3.31793L4.10854 5.47887L4.14379 5.52015L4.18204 5.48163L9.37211 0.255583L9.37214 0.255554C9.40143 0.226009 9.44403 0.206941 9.49102 0.20419L9.49123 0.204177C9.53719 0.201295 9.58334 0.215418 9.61714 0.241868L9.61726 0.241963L11.0482 1.3545ZM9.64795 0.202489C9.60405 0.168134 9.54569 0.150664 9.4881 0.154275C9.42974 0.157691 9.37524 0.181408 9.33663 0.22035L9.64795 0.202489ZM2.15564 3.21001C2.09783 3.2024 2.03881 3.21626 1.99225 3.24759L2.15564 3.21001Z" fill="#424548" stroke="#424548" stroke-width="0.1"/>
</svg>
