<svg width="36" height="36" viewBox="0 0 36 36" fill="none" xmlns="http://www.w3.org/2000/svg">
<circle cx="18" cy="18" r="17.5" fill="#FFD300" stroke="#424548"/>
<path d="M26.046 27.9477C26.3921 27.7612 26.6568 27.5252 26.8345 27.2379C27.0126 26.9501 27.1 26.6165 27.1 26.2406V18.5409C27.1 18.156 27.0128 17.8175 26.8345 17.5294C26.6566 17.2418 26.3916 17.0103 26.0451 16.8332C25.3848 16.4642 24.6134 16.2816 23.734 16.2816C22.854 16.2816 22.0704 16.4645 21.3859 16.8332C21.0508 17.0108 20.7949 17.2429 20.6234 17.5308C20.4518 17.8187 20.368 18.1567 20.368 18.5409V26.2406C20.368 26.6158 20.452 26.9489 20.6234 27.2364C20.7946 27.5239 21.0499 27.7603 21.3842 27.9473L21.3856 27.9481C22.0701 28.3169 22.8538 28.4999 23.734 28.4999C24.6138 28.4999 25.3855 28.317 26.046 27.9477ZM26.046 27.9477C26.0458 27.9478 26.0456 27.948 26.0454 27.9481L25.9979 27.86M26.046 27.9477C26.0463 27.9476 26.0465 27.9475 26.0468 27.9473L25.9979 27.86M25.9979 27.86C26.666 27.5002 27 26.9603 27 26.2406V18.5409C27 17.8022 26.666 17.2623 25.9979 16.9214L21.433 27.86C22.101 28.2199 22.868 28.3999 23.734 28.3999C24.6 28.3999 25.3546 28.2199 25.9979 27.86ZM25.2149 17.7762L25.2148 17.7763L25.2177 17.778C25.3928 17.8834 25.5651 17.9882 25.6947 18.111C25.8227 18.2323 25.8979 18.3608 25.8979 18.5125V26.269C25.8979 26.4228 25.8205 26.5675 25.6908 26.7046C25.5613 26.8414 25.3884 26.9613 25.218 27.0639C25.0726 27.1493 24.8454 27.2177 24.5773 27.2643C24.3111 27.3106 24.0135 27.3339 23.734 27.3339C23.4546 27.3339 23.1517 27.3106 22.8771 27.2642C22.6015 27.2177 22.3623 27.1493 22.2036 27.063C22.0351 26.9615 21.8725 26.8425 21.7527 26.707C21.6329 26.5715 21.5615 26.426 21.5615 26.269V18.5125C21.5615 18.3574 21.6311 18.2283 21.749 18.1087C21.8689 17.9871 22.0318 17.8824 22.2054 17.778C22.5323 17.5814 23.1779 17.4192 23.734 17.4192C24.0096 17.4192 24.3049 17.4592 24.5704 17.5247C24.8373 17.5906 25.067 17.6805 25.2149 17.7762ZM9.91612 19.9919L9.91752 19.9927C10.6021 20.3615 11.3858 20.5445 12.266 20.5445C13.1457 20.5445 13.9176 20.3616 14.578 19.9923C14.9241 19.8057 15.1887 19.5698 15.3665 19.2825C15.5445 18.9947 15.632 18.6611 15.632 18.2852V10.5855C15.632 10.2096 15.5445 9.87594 15.3665 9.58818C15.1887 9.3009 14.9241 9.06492 14.578 8.87835C13.9175 8.50903 13.1457 8.32618 12.266 8.32618C11.3858 8.32618 10.6021 8.50919 9.91752 8.87797L9.91751 8.87796L9.91613 8.87874C9.58183 9.06576 9.32658 9.3022 9.15533 9.58961C8.98401 9.87715 8.9 10.2103 8.9 10.5855V18.2852C8.9 18.6604 8.98401 18.9935 9.15533 19.2811C9.32658 19.5685 9.58183 19.8049 9.91612 19.9919ZM13.7918 9.8147L13.7918 9.81475L13.7946 9.81646C13.9677 9.92058 14.1307 10.0268 14.2506 10.1498C14.3687 10.271 14.4385 10.4018 14.4385 10.5571V18.342C14.4385 18.4801 14.3545 18.6163 14.2092 18.7519C14.0656 18.886 13.8785 19.0044 13.7051 19.1087L13.7051 19.1086L13.7023 19.1104C13.5567 19.2048 13.3403 19.2797 13.0846 19.3307C12.8305 19.3813 12.5448 19.4069 12.266 19.4069C11.7043 19.4069 11.1646 19.3034 10.8409 19.1087C10.6688 19.0052 10.4897 18.887 10.3541 18.7537C10.2177 18.6195 10.1385 18.4828 10.1385 18.342V10.5571C10.1385 10.4018 10.2082 10.271 10.3263 10.1498C10.4462 10.0268 10.6092 9.92058 10.7823 9.81646C11.1096 9.61959 11.7105 9.46378 12.266 9.46378C12.542 9.46378 12.8491 9.50236 13.1263 9.56656C13.4054 9.6312 13.6452 9.71972 13.7918 9.8147ZM12.7856 28.8692H12.8441L12.8728 28.8182L24.5264 8.04893L24.6099 7.9H24.4392H23.2144H23.1559L23.1272 7.95107L11.4736 28.7203L11.39 28.8692H11.5608H12.7856Z" fill="#424548" stroke="#424548" stroke-width="0.2"/>
</svg>
