<svg width="35" height="42" viewBox="0 0 35 42" fill="none" xmlns="http://www.w3.org/2000/svg">
<path d="M1 39.5V2.5L3 1H33L34 3V39L32.5 41H2.5L1 39.5Z" fill="#FFD300"/>
<mask id="path-2-inside-1" fill="white">
<path d="M27.2674 6.58659H7.73256C7.40875 6.58659 7.0982 6.71673 6.86923 6.9484C6.64026 7.18006 6.51163 7.49426 6.51163 7.82188V17.7042C6.51163 18.0319 6.64026 18.3461 6.86923 18.5777C7.0982 18.8094 7.40875 18.9395 7.73256 18.9395H27.2674C27.5913 18.9395 27.9018 18.8094 28.1308 18.5777C28.3597 18.3461 28.4884 18.0319 28.4884 17.7042V7.82188C28.4884 7.49426 28.3597 7.18006 28.1308 6.9484C27.9018 6.71673 27.5913 6.58659 27.2674 6.58659ZM26.0465 16.4689H8.95349V9.05718H26.0465V16.4689ZM32.1512 0H2.84884C2.09354 0.000871855 1.36943 0.304828 0.835357 0.845185C0.301283 1.38554 0.000861717 2.11817 0 2.88235V39.1176C0.000861717 39.8818 0.301283 40.6145 0.835357 41.1548C1.36943 41.6952 2.09354 41.9991 2.84884 42H32.1512C32.9065 41.9991 33.6306 41.6952 34.1646 41.1548C34.6987 40.6145 34.9991 39.8818 35 39.1176V2.88235C34.9991 2.11817 34.6987 1.38554 34.1646 0.845185C33.6306 0.304828 32.9065 0.000871855 32.1512 0ZM32.5581 39.1176C32.558 39.2268 32.5151 39.3315 32.4388 39.4087C32.3625 39.4859 32.2591 39.5293 32.1512 39.5294H2.84884C2.74093 39.5293 2.63748 39.4859 2.56118 39.4087C2.48488 39.3315 2.44197 39.2268 2.44186 39.1176V2.88235C2.44197 2.77318 2.48488 2.66851 2.56118 2.59131C2.63748 2.51411 2.74093 2.4707 2.84884 2.47059H32.1512C32.2591 2.4707 32.3625 2.51411 32.4388 2.59131C32.5151 2.66851 32.558 2.77318 32.5581 2.88235V39.1176ZM19.5349 25.116C19.5349 25.5232 19.4155 25.9213 19.1919 26.2598C18.9683 26.5984 18.6505 26.8623 18.2787 27.0181C17.9069 27.1739 17.4977 27.2147 17.103 27.1353C16.7083 27.0558 16.3457 26.8597 16.0611 26.5718C15.7765 26.2839 15.5827 25.917 15.5042 25.5177C15.4257 25.1183 15.466 24.7043 15.62 24.3281C15.774 23.9519 16.0348 23.6304 16.3695 23.4042C16.7041 23.1779 17.0975 23.0572 17.5 23.0572C18.0395 23.0578 18.5567 23.2749 18.9382 23.6609C19.3197 24.0468 19.5343 24.5702 19.5349 25.116ZM19.5349 33.3513C19.5349 33.7585 19.4155 34.1565 19.1919 34.4951C18.9683 34.8337 18.6505 35.0976 18.2787 35.2534C17.9069 35.4092 17.4977 35.45 17.103 35.3706C16.7083 35.2911 16.3457 35.095 16.0611 34.8071C15.7765 34.5192 15.5827 34.1523 15.5042 33.753C15.4257 33.3536 15.466 32.9396 15.62 32.5634C15.774 32.1872 16.0348 31.8657 16.3695 31.6394C16.7041 31.4132 17.0975 31.2925 17.5 31.2925C18.0395 31.2931 18.5567 31.5102 18.9382 31.8961C19.3197 32.2821 19.5343 32.8054 19.5349 33.3513ZM11.3953 25.116C11.3953 25.5232 11.276 25.9213 11.0524 26.2598C10.8288 26.5984 10.511 26.8623 10.1392 27.0181C9.76735 27.1739 9.35821 27.2147 8.96348 27.1353C8.56875 27.0558 8.20617 26.8597 7.92158 26.5718C7.637 26.2839 7.4432 25.917 7.36468 25.5177C7.28616 25.1183 7.32646 24.7043 7.48048 24.3281C7.63449 23.9519 7.89531 23.6304 8.22994 23.4042C8.56458 23.1779 8.958 23.0572 9.36047 23.0572C9.89997 23.0578 10.4172 23.2749 10.7987 23.6609C11.1802 24.0468 11.3948 24.5702 11.3953 25.116ZM11.3953 33.3513C11.3953 33.7585 11.276 34.1565 11.0524 34.4951C10.8288 34.8337 10.511 35.0976 10.1392 35.2534C9.76735 35.4092 9.35821 35.45 8.96348 35.3706C8.56875 35.2911 8.20617 35.095 7.92158 34.8071C7.637 34.5192 7.4432 34.1523 7.36468 33.753C7.28616 33.3536 7.32646 32.9396 7.48048 32.5634C7.63449 32.1872 7.89531 31.8657 8.22994 31.6394C8.56458 31.4132 8.958 31.2925 9.36047 31.2925C9.89997 31.2931 10.4172 31.5102 10.7987 31.8961C11.1802 32.2821 11.3948 32.8054 11.3953 33.3513ZM27.6744 25.116C27.6744 25.5232 27.5551 25.9213 27.3315 26.2598C27.1079 26.5984 26.7901 26.8623 26.4182 27.0181C26.0464 27.1739 25.6373 27.2147 25.2425 27.1353C24.8478 27.0558 24.4852 26.8597 24.2007 26.5718C23.9161 26.2839 23.7223 25.917 23.6438 25.5177C23.5652 25.1183 23.6055 24.7043 23.7595 24.3281C23.9136 23.9519 24.1744 23.6304 24.509 23.4042C24.8436 23.1779 25.2371 23.0572 25.6395 23.0572C26.179 23.0578 26.6963 23.2749 27.0778 23.6609C27.4592 24.0468 27.6738 24.5702 27.6744 25.116ZM27.6744 33.3513C27.6744 33.7585 27.5551 34.1565 27.3315 34.4951C27.1079 34.8337 26.7901 35.0976 26.4182 35.2534C26.0464 35.4092 25.6373 35.45 25.2425 35.3706C24.8478 35.2911 24.4852 35.095 24.2007 34.8071C23.9161 34.5192 23.7223 34.1523 23.6438 33.753C23.5652 33.3536 23.6055 32.9396 23.7595 32.5634C23.9136 32.1872 24.1744 31.8657 24.509 31.6394C24.8436 31.4132 25.2371 31.2925 25.6395 31.2925C26.179 31.2931 26.6963 31.5102 27.0778 31.8961C27.4592 32.2821 27.6738 32.8054 27.6744 33.3513Z"/>
</mask>
<path d="M27.2674 6.58659H7.73256C7.40875 6.58659 7.0982 6.71673 6.86923 6.9484C6.64026 7.18006 6.51163 7.49426 6.51163 7.82188V17.7042C6.51163 18.0319 6.64026 18.3461 6.86923 18.5777C7.0982 18.8094 7.40875 18.9395 7.73256 18.9395H27.2674C27.5913 18.9395 27.9018 18.8094 28.1308 18.5777C28.3597 18.3461 28.4884 18.0319 28.4884 17.7042V7.82188C28.4884 7.49426 28.3597 7.18006 28.1308 6.9484C27.9018 6.71673 27.5913 6.58659 27.2674 6.58659ZM26.0465 16.4689H8.95349V9.05718H26.0465V16.4689ZM32.1512 0H2.84884C2.09354 0.000871855 1.36943 0.304828 0.835357 0.845185C0.301283 1.38554 0.000861717 2.11817 0 2.88235V39.1176C0.000861717 39.8818 0.301283 40.6145 0.835357 41.1548C1.36943 41.6952 2.09354 41.9991 2.84884 42H32.1512C32.9065 41.9991 33.6306 41.6952 34.1646 41.1548C34.6987 40.6145 34.9991 39.8818 35 39.1176V2.88235C34.9991 2.11817 34.6987 1.38554 34.1646 0.845185C33.6306 0.304828 32.9065 0.000871855 32.1512 0ZM32.5581 39.1176C32.558 39.2268 32.5151 39.3315 32.4388 39.4087C32.3625 39.4859 32.2591 39.5293 32.1512 39.5294H2.84884C2.74093 39.5293 2.63748 39.4859 2.56118 39.4087C2.48488 39.3315 2.44197 39.2268 2.44186 39.1176V2.88235C2.44197 2.77318 2.48488 2.66851 2.56118 2.59131C2.63748 2.51411 2.74093 2.4707 2.84884 2.47059H32.1512C32.2591 2.4707 32.3625 2.51411 32.4388 2.59131C32.5151 2.66851 32.558 2.77318 32.5581 2.88235V39.1176ZM19.5349 25.116C19.5349 25.5232 19.4155 25.9213 19.1919 26.2598C18.9683 26.5984 18.6505 26.8623 18.2787 27.0181C17.9069 27.1739 17.4977 27.2147 17.103 27.1353C16.7083 27.0558 16.3457 26.8597 16.0611 26.5718C15.7765 26.2839 15.5827 25.917 15.5042 25.5177C15.4257 25.1183 15.466 24.7043 15.62 24.3281C15.774 23.9519 16.0348 23.6304 16.3695 23.4042C16.7041 23.1779 17.0975 23.0572 17.5 23.0572C18.0395 23.0578 18.5567 23.2749 18.9382 23.6609C19.3197 24.0468 19.5343 24.5702 19.5349 25.116ZM19.5349 33.3513C19.5349 33.7585 19.4155 34.1565 19.1919 34.4951C18.9683 34.8337 18.6505 35.0976 18.2787 35.2534C17.9069 35.4092 17.4977 35.45 17.103 35.3706C16.7083 35.2911 16.3457 35.095 16.0611 34.8071C15.7765 34.5192 15.5827 34.1523 15.5042 33.753C15.4257 33.3536 15.466 32.9396 15.62 32.5634C15.774 32.1872 16.0348 31.8657 16.3695 31.6394C16.7041 31.4132 17.0975 31.2925 17.5 31.2925C18.0395 31.2931 18.5567 31.5102 18.9382 31.8961C19.3197 32.2821 19.5343 32.8054 19.5349 33.3513ZM11.3953 25.116C11.3953 25.5232 11.276 25.9213 11.0524 26.2598C10.8288 26.5984 10.511 26.8623 10.1392 27.0181C9.76735 27.1739 9.35821 27.2147 8.96348 27.1353C8.56875 27.0558 8.20617 26.8597 7.92158 26.5718C7.637 26.2839 7.4432 25.917 7.36468 25.5177C7.28616 25.1183 7.32646 24.7043 7.48048 24.3281C7.63449 23.9519 7.89531 23.6304 8.22994 23.4042C8.56458 23.1779 8.958 23.0572 9.36047 23.0572C9.89997 23.0578 10.4172 23.2749 10.7987 23.6609C11.1802 24.0468 11.3948 24.5702 11.3953 25.116ZM11.3953 33.3513C11.3953 33.7585 11.276 34.1565 11.0524 34.4951C10.8288 34.8337 10.511 35.0976 10.1392 35.2534C9.76735 35.4092 9.35821 35.45 8.96348 35.3706C8.56875 35.2911 8.20617 35.095 7.92158 34.8071C7.637 34.5192 7.4432 34.1523 7.36468 33.753C7.28616 33.3536 7.32646 32.9396 7.48048 32.5634C7.63449 32.1872 7.89531 31.8657 8.22994 31.6394C8.56458 31.4132 8.958 31.2925 9.36047 31.2925C9.89997 31.2931 10.4172 31.5102 10.7987 31.8961C11.1802 32.2821 11.3948 32.8054 11.3953 33.3513ZM27.6744 25.116C27.6744 25.5232 27.5551 25.9213 27.3315 26.2598C27.1079 26.5984 26.7901 26.8623 26.4182 27.0181C26.0464 27.1739 25.6373 27.2147 25.2425 27.1353C24.8478 27.0558 24.4852 26.8597 24.2007 26.5718C23.9161 26.2839 23.7223 25.917 23.6438 25.5177C23.5652 25.1183 23.6055 24.7043 23.7595 24.3281C23.9136 23.9519 24.1744 23.6304 24.509 23.4042C24.8436 23.1779 25.2371 23.0572 25.6395 23.0572C26.179 23.0578 26.6963 23.2749 27.0778 23.6609C27.4592 24.0468 27.6738 24.5702 27.6744 25.116ZM27.6744 33.3513C27.6744 33.7585 27.5551 34.1565 27.3315 34.4951C27.1079 34.8337 26.7901 35.0976 26.4182 35.2534C26.0464 35.4092 25.6373 35.45 25.2425 35.3706C24.8478 35.2911 24.4852 35.095 24.2007 34.8071C23.9161 34.5192 23.7223 34.1523 23.6438 33.753C23.5652 33.3536 23.6055 32.9396 23.7595 32.5634C23.9136 32.1872 24.1744 31.8657 24.509 31.6394C24.8436 31.4132 25.2371 31.2925 25.6395 31.2925C26.179 31.2931 26.6963 31.5102 27.0778 31.8961C27.4592 32.2821 27.6738 32.8054 27.6744 33.3513Z" fill="#424548" stroke="#FFD300" mask="url(#path-2-inside-1)"/>
</svg>
