<svg width="47" height="31" viewBox="0 0 47 31" fill="none" xmlns="http://www.w3.org/2000/svg">
<path d="M3 28.4436L1 6.4436L2.5 4.9436L41.5 0.943604L43 2.4436L45 24.4436L44 25.9436L4 29.9436L3 28.4436Z" fill="#FFD300"/>
<path d="M41.1532 0.224259L2.24472 4.10105C1.64965 4.16101 1.10356 4.46365 0.72627 4.94255C0.348982 5.42145 0.171311 6.03751 0.232241 6.65554L2.39983 28.41C2.46204 29.0279 2.75778 29.5968 3.22214 29.9918C3.68651 30.3869 4.28158 30.5758 4.87679 30.5172L43.7853 26.6404C44.3803 26.5804 44.9264 26.2778 45.3037 25.7989C45.681 25.32 45.8587 24.7039 45.7977 24.0859L43.6302 2.33143C43.5679 1.71353 43.2722 1.14464 42.8078 0.749602C42.3435 0.354561 41.7484 0.165629 41.1532 0.224259ZM15.4785 27.8915L2.93221 18.585L2.69281 16.1823L13.1561 4.58317L30.5515 2.84991L43.0978 12.1564L43.3372 14.5591L32.8739 26.1583L15.4785 27.8915ZM42.1337 2.48054L42.892 10.0917L32.8241 2.62347L41.308 1.77815C41.5064 1.75859 41.7048 1.82156 41.8596 1.95324C42.0144 2.08493 42.113 2.27456 42.1337 2.48054ZM2.39955 5.65494L10.8835 4.80961L2.48709 14.1176L1.72872 6.50643C1.70839 6.30042 1.76761 6.09506 1.89338 5.93542C2.01914 5.77578 2.20118 5.67491 2.39955 5.65494ZM3.89631 28.2609L3.13794 20.6497L13.2059 28.118L4.72196 28.9633C4.52355 28.9828 4.32519 28.9199 4.1704 28.7882C4.0156 28.6565 3.91703 28.4669 3.89631 28.2609ZM43.6304 25.0865L35.1465 25.9318L43.5429 16.6239L44.3013 24.235C44.3216 24.441 44.2624 24.6464 44.1366 24.806C44.0108 24.9656 43.8288 25.0665 43.6304 25.0865ZM22.3183 8.37821C20.9864 8.51092 19.7253 9.05075 18.6944 9.92944C17.6635 10.8081 16.9092 11.9862 16.5268 13.3147C16.1444 14.6432 16.1512 16.0625 16.5462 17.393C16.9411 18.7235 17.7067 19.9055 18.7459 20.7896C19.7851 21.6737 21.0514 22.2201 22.3846 22.3598C23.7177 22.4994 25.058 22.226 26.2357 21.5742C27.4135 20.9223 28.3759 19.9213 29.0013 18.6976C29.6267 17.474 29.887 16.0827 29.7492 14.6997C29.5625 12.846 28.6752 11.1394 27.2821 9.9543C25.8891 8.76919 24.1039 8.20237 22.3183 8.37821ZM23.5569 20.8093C22.521 20.9125 21.4765 20.6945 20.5557 20.1827C19.6348 19.6709 18.8788 18.8884 18.3834 17.9341C17.8879 16.9799 17.6753 15.8967 17.7722 14.8215C17.8692 13.7464 18.2715 12.7276 18.9282 11.8941C19.5849 11.0605 20.4666 10.4495 21.4617 10.1384C22.4568 9.82733 23.5206 9.8301 24.5187 10.1464C25.5168 10.4627 26.4043 11.0782 27.0689 11.9153C27.7335 12.7523 28.1455 13.7732 28.2527 14.8488C28.3948 16.2909 27.9802 17.7284 27.0999 18.8458C26.2196 19.9632 24.9454 20.6694 23.5569 20.8093Z" fill="#424548"/>
</svg>
